<svg xmlns="http://www.w3.org/2000/svg" xmlns:xlink="http://www.w3.org/1999/xlink" contentStyleType="text/css" data-diagram-type="DESCRIPTION" height="809px" preserveAspectRatio="none" style="width:2475px;height:809px;background:#FFFFFF;" version="1.1" viewBox="0 0 2475 809" width="2475px" zoomAndPan="magnify"><?plantuml 1.2026.4?><defs/><g><!--cluster Client module (JavaFX)--><g class="cluster" data-qualified-name="Client module .JavaFX." data-source-line="5" id="ent0001"><path d="M52.44,275 L234.0865,275 A3.75,3.75 0 0 1 236.5865,277.5 L243.5865,297.2969 L1325.54,297.2969 A2.5,2.5 0 0 1 1328.04,299.7969 L1328.04,609.5 A2.5,2.5 0 0 1 1325.54,612 L52.44,612 A2.5,2.5 0 0 1 49.94,609.5 L49.94,277.5 A2.5,2.5 0 0 1 52.44,275" fill="none" style="stroke:#000000;stroke-width:1.5;"/><line style="stroke:#000000;stroke-width:1.5;" x1="49.94" x2="243.5865" y1="297.2969" y2="297.2969"/><text fill="#000000" font-family="sans-serif" font-size="14" font-weight="700" lengthAdjust="spacing" textLength="180.6465" x="53.94" y="289.9951">Client module (JavaFX)</text></g><!--cluster Shared module--><g class="cluster" data-qualified-name="Shared module" data-source-line="24" id="ent0017"><path d="M8.5,636 L128.7803,636 A3.75,3.75 0 0 1 131.2803,638.5 L138.2803,658.2969 L391.47,658.2969 A2.5,2.5 0 0 1 393.97,660.7969 L393.97,791.5 A2.5,2.5 0 0 1 391.47,794 L8.5,794 A2.5,2.5 0 0 1 6,791.5 L6,638.5 A2.5,2.5 0 0 1 8.5,636" fill="none" style="stroke:#000000;stroke-width:1.5;"/><line style="stroke:#000000;stroke-width:1.5;" x1="6" x2="138.2803" y1="658.2969" y2="658.2969"/><text fill="#000000" font-family="sans-serif" font-size="14" font-weight="700" lengthAdjust="spacing" textLength="119.2803" x="10" y="650.9951">Shared module</text></g><!--cluster Server module--><g class="cluster" data-qualified-name="Server module" data-source-line="30" id="ent0021"><path d="M778.09,6 L894.4601,6 A3.75,3.75 0 0 1 896.9601,8.5 L903.9601,28.2969 L2248.16,28.2969 A2.5,2.5 0 0 1 2250.66,30.7969 L2250.66,248.5 A2.5,2.5 0 0 1 2248.16,251 L778.09,251 A2.5,2.5 0 0 1 775.59,248.5 L775.59,8.5 A2.5,2.5 0 0 1 778.09,6" fill="none" style="stroke:#000000;stroke-width:1.5;"/><line style="stroke:#000000;stroke-width:1.5;" x1="775.59" x2="903.9601" y1="28.2969" y2="28.2969"/><text fill="#000000" font-family="sans-serif" font-size="14" font-weight="700" lengthAdjust="spacing" textLength="115.3701" x="779.59" y="20.9951">Server module</text></g><!--entity Views--><g class="entity" data-qualified-name="Client module .JavaFX..Views" data-source-line="6" id="ent0002"><rect fill="#F1F1F1" height="36.2969" rx="2.5" ry="2.5" style="stroke:#181818;stroke-width:0.5;" width="102.7969" x="65.94" y="417.85"/><text fill="#000000" font-family="sans-serif" font-size="14" lengthAdjust="spacing" textLength="82.7969" x="75.94" y="440.8451">FXML Views</text></g><!--entity Controllers--><g class="entity" data-qualified-name="Client module .JavaFX..Controllers" data-source-line="7" id="ent0003"><rect fill="#F1F1F1" height="36.2969" rx="2.5" ry="2.5" style="stroke:#181818;stroke-width:0.5;" width="96.4668" x="277.59" y="417.85"/><text fill="#000000" font-family="sans-serif" font-size="14" lengthAdjust="spacing" textLength="76.4668" x="287.59" y="440.8451">Controllers</text></g><!--entity Navigator--><g class="entity" data-qualified-name="Client module .JavaFX..Navigator" data-source-line="8" id="ent0004"><rect fill="#F1F1F1" height="36.2969" rx="2.5" ry="2.5" style="stroke:#181818;stroke-width:0.5;" width="131.1865" x="461.69" y="559.85"/><text fill="#000000" font-family="sans-serif" font-size="14" lengthAdjust="spacing" textLength="111.1865" x="471.69" y="582.8451">SceneNavigator</text></g><!--entity CPH--><g class="entity" data-qualified-name="Client module .JavaFX..CPH" data-source-line="9" id="ent0005"><rect fill="#F1F1F1" height="36.2969" rx="2.5" ry="2.5" style="stroke:#181818;stroke-width:0.5;" width="172.626" x="440.97" y="488.85"/><text fill="#000000" font-family="sans-serif" font-size="14" lengthAdjust="spacing" textLength="152.626" x="450.97" y="511.8451">ClientProtocolHandler</text></g><!--entity SC--><g class="entity" data-qualified-name="Client module .JavaFX..SC" data-source-line="10" id="ent0006"><rect fill="#F1F1F1" height="36.2969" rx="2.5" ry="2.5" style="stroke:#181818;stroke-width:0.5;" width="107.8896" x="794.28" y="362.85"/><text fill="#000000" font-family="sans-serif" font-size="14" lengthAdjust="spacing" textLength="87.8896" x="804.28" y="385.8451">SocketClient</text></g><!--entity Session--><g class="entity" data-qualified-name="Client module .JavaFX..Session" data-source-line="11" id="ent0007"><rect fill="#F1F1F1" height="36.2969" rx="2.5" ry="2.5" style="stroke:#181818;stroke-width:0.5;" width="128.5068" x="463.03" y="417.85"/><text fill="#000000" font-family="sans-serif" font-size="14" lengthAdjust="spacing" textLength="108.5068" x="473.03" y="440.8451">SessionContext</text></g><!--entity Cache--><g class="entity" data-qualified-name="Client module .JavaFX..Cache" data-source-line="12" id="ent0008"><rect fill="#F1F1F1" height="36.2969" rx="2.5" ry="2.5" style="stroke:#181818;stroke-width:0.5;" width="116.5029" x="469.03" y="346.85"/><text fill="#000000" font-family="sans-serif" font-size="14" lengthAdjust="spacing" textLength="96.5029" x="479.03" y="369.8451">AuctionCache</text></g><!--entity Bus--><g class="entity" data-qualified-name="Client module .JavaFX..Bus" data-source-line="13" id="ent0009"><rect fill="#F1F1F1" height="36.2969" rx="2.5" ry="2.5" style="stroke:#181818;stroke-width:0.5;" width="161.1758" x="1150.86" y="328.85"/><text fill="#000000" font-family="sans-serif" font-size="14" lengthAdjust="spacing" textLength="141.1758" x="1160.86" y="351.8451">RealtimeAuctionBus</text></g><!--entity Models--><g class="entity" data-qualified-name="Shared module.Models" data-source-line="25" id="ent0018"><rect fill="#F1F1F1" height="36.2969" rx="2.5" ry="2.5" style="stroke:#181818;stroke-width:0.5;" width="69.3281" x="82.67" y="741.85"/><text fill="#000000" font-family="sans-serif" font-size="14" lengthAdjust="spacing" textLength="49.3281" x="92.67" y="764.8451">Models</text></g><!--entity Protocol--><g class="entity" data-qualified-name="Shared module.Protocol" data-source-line="26" id="ent0019"><rect fill="#F1F1F1" height="36.2969" rx="2.5" ry="2.5" style="stroke:#181818;stroke-width:0.5;" width="190.6729" x="22" y="670.85"/><text fill="#000000" font-family="sans-serif" font-size="14" lengthAdjust="spacing" textLength="170.6729" x="32" y="693.8451">Message / MessageType</text></g><!--entity Factory--><g class="entity" data-qualified-name="Shared module.Factory" data-source-line="27" id="ent0020"><rect fill="#F1F1F1" height="36.2969" rx="2.5" ry="2.5" style="stroke:#181818;stroke-width:0.5;" width="104.2939" x="273.67" y="741.85"/><text fill="#000000" font-family="sans-serif" font-size="14" lengthAdjust="spacing" textLength="84.2939" x="283.67" y="764.8451">ItemFactory</text></g><!--entity SS--><g class="entity" data-qualified-name="Server module.SS" data-source-line="31" id="ent0022"><rect fill="#F1F1F1" height="36.2969" rx="2.5" ry="2.5" style="stroke:#181818;stroke-width:0.5;" width="113.2695" x="791.59" y="198.85"/><text fill="#000000" font-family="sans-serif" font-size="14" lengthAdjust="spacing" textLength="93.2695" x="801.59" y="221.8451">SocketServer</text></g><!--entity CH--><g class="entity" data-qualified-name="Server module.CH" data-source-line="32" id="ent0023"><rect fill="#F1F1F1" height="36.2969" rx="2.5" ry="2.5" style="stroke:#181818;stroke-width:0.5;" width="115.6553" x="1173.62" y="198.85"/><text fill="#000000" font-family="sans-serif" font-size="14" lengthAdjust="spacing" textLength="95.6553" x="1183.62" y="221.8451">ClientHandler</text></g><!--entity SPH--><g class="entity" data-qualified-name="Server module.SPH" data-source-line="33" id="ent0024"><rect fill="#F1F1F1" height="36.2969" rx="2.5" ry="2.5" style="stroke:#181818;stroke-width:0.5;" width="178.0059" x="1375.04" y="198.85"/><text fill="#000000" font-family="sans-serif" font-size="14" lengthAdjust="spacing" textLength="158.0059" x="1385.04" y="221.8451">ServerProtocolHandler</text></g><!--entity Registry--><g class="entity" data-qualified-name="Server module.Registry" data-source-line="34" id="ent0025"><rect fill="#F1F1F1" height="36.2969" rx="2.5" ry="2.5" style="stroke:#181818;stroke-width:0.5;" width="129.6826" x="1620.73" y="198.85"/><text fill="#000000" font-family="sans-serif" font-size="14" lengthAdjust="spacing" textLength="109.6826" x="1630.73" y="221.8451">ServiceRegistry</text></g><!--entity Services--><g class="entity" data-qualified-name="Server module.Services" data-source-line="35" id="ent0026"><rect fill="#F1F1F1" height="52.5938" rx="2.5" ry="2.5" style="stroke:#181818;stroke-width:0.5;" width="196.292" x="1818.1" y="119.7"/><text fill="#000000" font-family="sans-serif" font-size="14" lengthAdjust="spacing" textLength="59.0352" x="1828.1" y="142.6951">Services</text><text fill="#000000" font-family="sans-serif" font-size="14" lengthAdjust="spacing" textLength="176.292" x="1828.1" y="158.992">User/Auction/Bid/AutoBid</text></g><!--entity Scheduler--><g class="entity" data-qualified-name="Server module.Scheduler" data-source-line="36" id="ent0027"><rect fill="#F1F1F1" height="36.2969" rx="2.5" ry="2.5" style="stroke:#181818;stroke-width:0.5;" width="143.0537" x="1614.04" y="127.85"/><text fill="#000000" font-family="sans-serif" font-size="14" lengthAdjust="spacing" textLength="123.0537" x="1624.04" y="150.8451">AuctionScheduler</text></g><!--entity Broadcast--><g class="entity" data-qualified-name="Server module.Broadcast" data-source-line="37" id="ent0028"><rect fill="#F1F1F1" height="36.2969" rx="2.5" ry="2.5" style="stroke:#181818;stroke-width:0.5;" width="159.2686" x="2075.39" y="48.85"/><text fill="#000000" font-family="sans-serif" font-size="14" lengthAdjust="spacing" textLength="139.2686" x="2085.39" y="71.8451">ClientBroadcastHub</text></g><!--entity DAO--><g class="entity" data-qualified-name="Server module.DAO" data-source-line="38" id="ent0029"><rect fill="#F1F1F1" height="36.2969" rx="2.5" ry="2.5" style="stroke:#181818;stroke-width:0.5;" width="94.8604" x="2107.59" y="127.85"/><text fill="#000000" font-family="sans-serif" font-size="14" lengthAdjust="spacing" textLength="74.8604" x="2117.59" y="150.8451">DAO Layer</text></g><!--entity DB--><g class="entity" data-qualified-name="DB" data-source-line="50" id="ent0038"><path d="M2329.66,133.35 C2329.66,123.35 2390.1229,123.35 2390.1229,123.35 C2390.1229,123.35 2450.5858,123.35 2450.5858,133.35 L2450.5858,158.6469 C2450.5858,168.6469 2390.1229,168.6469 2390.1229,168.6469 C2390.1229,168.6469 2329.66,168.6469 2329.66,158.6469 L2329.66,133.35" fill="#F1F1F1" style="stroke:#181818;stroke-width:0.5;"/><path d="M2329.66,133.35 C2329.66,143.35 2390.1229,143.35 2390.1229,143.35 C2390.1229,143.35 2450.5858,143.35 2450.5858,133.35" fill="none" style="stroke:#181818;stroke-width:0.5;"/><text fill="#000000" font-family="sans-serif" font-size="14" lengthAdjust="spacing" textLength="100.9258" x="2339.66" y="160.3451">MySQL / Aiven</text></g><!--entity Client--><g class="entity" data-qualified-name="Client" data-source-line="55" id="ent0042"><ellipse cx="117.34" cy="137" fill="#F1F1F1" rx="8" ry="8" style="stroke:#181818;stroke-width:0.5;"/><text fill="#000000" font-family="sans-serif" font-size="14" lengthAdjust="spacing" textLength="40.5303" x="97.0749" y="166.9951">Client</text></g><!--entity Shared--><g class="entity" data-qualified-name="Shared" data-source-line="55" id="ent0043"><ellipse cx="325.82" cy="184" fill="#F1F1F1" rx="8" ry="8" style="stroke:#181818;stroke-width:0.5;"/><text fill="#000000" font-family="sans-serif" font-size="14" lengthAdjust="spacing" textLength="49.5947" x="301.0226" y="213.9951">Shared</text></g><!--entity Server--><g class="entity" data-qualified-name="Server" data-source-line="56" id="ent0045"><ellipse cx="117.34" cy="230" fill="#F1F1F1" rx="8" ry="8" style="stroke:#181818;stroke-width:0.5;"/><text fill="#000000" font-family="sans-serif" font-size="14" lengthAdjust="spacing" textLength="45.9102" x="94.3849" y="259.9951">Server</text></g><!--link Views to Controllers--><g class="link" data-entity-1="ent0002" data-entity-2="ent0003" data-link-type="dependency" data-source-line="15" id="lnk10"><path d="M169.11,436 C202.19,436 240.05,436 272.43,436" fill="none" id="Views-to-Controllers" style="stroke:#181818;stroke-width:1;"/><polygon fill="#181818" points="277.43,436,268.43,432,272.43,436,268.43,440,277.43,436" style="stroke:#181818;stroke-width:1;stroke-linejoin:miter;stroke-miterlimit:10;"/></g><!--link Controllers to Navigator--><g class="link" data-entity-1="ent0003" data-entity-2="ent0004" data-link-type="dependency" data-source-line="16" id="lnk11"><path d="M342.57,454.44 C363.2,477.66 401.44,517.59 440.97,543 C450.66,549.23 457.0629,552.7404 467.8529,557.4204" fill="none" id="Controllers-to-Navigator" style="stroke:#181818;stroke-width:1;"/><polygon fill="#181818" points="472.44,559.41,465.7749,552.1591,467.8529,557.4204,462.5915,559.4984,472.44,559.41" style="stroke:#181818;stroke-width:1;stroke-linejoin:miter;stroke-miterlimit:10;"/></g><!--link Controllers to CPH--><g class="link" data-entity-1="ent0003" data-entity-2="ent0005" data-link-type="dependency" data-source-line="17" id="lnk12"><path d="M374.34,452.92 C404.42,463.62 438.5994,475.7936 469.5094,486.7936" fill="none" id="Controllers-to-CPH" style="stroke:#181818;stroke-width:1;"/><polygon fill="#181818" points="474.22,488.47,467.082,481.684,469.5094,486.7936,464.3998,489.221,474.22,488.47" style="stroke:#181818;stroke-width:1;stroke-linejoin:miter;stroke-miterlimit:10;"/></g><!--link Controllers to Session--><g class="link" data-entity-1="ent0003" data-entity-2="ent0007" data-link-type="dependency" data-source-line="18" id="lnk13"><path d="M374.34,436 C400.84,436 429.2,436 457.9,436" fill="none" id="Controllers-to-Session" style="stroke:#181818;stroke-width:1;"/><polygon fill="#181818" points="462.9,436,453.9,432,457.9,436,453.9,440,462.9,436" style="stroke:#181818;stroke-width:1;stroke-linejoin:miter;stroke-miterlimit:10;"/></g><!--link Controllers to Cache--><g class="link" data-entity-1="ent0003" data-entity-2="ent0008" data-link-type="dependency" data-source-line="19" id="lnk14"><path d="M374.34,419.08 C404.42,408.38 438.5994,396.2064 469.5094,385.2064" fill="none" id="Controllers-to-Cache" style="stroke:#181818;stroke-width:1;"/><polygon fill="#181818" points="474.22,383.53,464.3998,382.779,469.5094,385.2064,467.082,390.316,474.22,383.53" style="stroke:#181818;stroke-width:1;stroke-linejoin:miter;stroke-miterlimit:10;"/></g><!--link SC to Bus--><g class="link" data-entity-1="ent0006" data-entity-2="ent0009" data-link-type="dependency" data-source-line="20" id="lnk15"><path d="M902.64,376.24 C967.08,370.49 1071.0598,361.214 1145.5398,354.574" fill="none" id="SC-to-Bus" style="stroke:#181818;stroke-width:1;"/><polygon fill="#181818" points="1150.52,354.13,1141.2004,350.945,1145.5398,354.574,1141.9108,358.9134,1150.52,354.13" style="stroke:#181818;stroke-width:1;stroke-linejoin:miter;stroke-miterlimit:10;"/><text fill="#000000" font-family="sans-serif" font-size="13" lengthAdjust="spacing" textLength="90.9746" x="982.86" y="353.1169">dispatch push</text></g><!--link Bus to Controllers--><g class="link" data-entity-1="ent0009" data-entity-2="ent0003" data-link-type="dependency" data-source-line="21" id="lnk16"><path d="M1150.38,334.82 C1140.46,333.67 1130.44,332.68 1120.86,332 C877.36,314.69 457.78,322.35 440.97,329 C395.75,346.88 360.9061,388.0302 342.2661,413.5902" fill="none" id="Bus-to-Controllers" style="stroke:#181818;stroke-width:1;"/><polygon fill="#181818" points="339.32,417.63,347.8549,412.7152,342.2661,413.5902,341.3911,408.0014,339.32,417.63" style="stroke:#181818;stroke-width:1;stroke-linejoin:miter;stroke-miterlimit:10;"/><text fill="#000000" font-family="sans-serif" font-size="13" lengthAdjust="spacing" textLength="114.2324" x="644.59" y="317.4969">notify UI listeners</text></g><!--link SS to CH--><g class="link" data-entity-1="ent0022" data-entity-2="ent0023" data-link-type="dependency" data-source-line="40" id="lnk30"><path d="M905.07,217 C976.83,217 1095.78,217 1168.21,217" fill="none" id="SS-to-CH" style="stroke:#181818;stroke-width:1;"/><polygon fill="#181818" points="1173.21,217,1164.21,213,1168.21,217,1164.21,221,1173.21,217" style="stroke:#181818;stroke-width:1;stroke-linejoin:miter;stroke-miterlimit:10;"/></g><!--link CH to SPH--><g class="link" data-entity-1="ent0023" data-entity-2="ent0024" data-link-type="dependency" data-source-line="41" id="lnk31"><path d="M1289.75,217 C1315.36,217 1341.13,217 1369.59,217" fill="none" id="CH-to-SPH" style="stroke:#181818;stroke-width:1;"/><polygon fill="#181818" points="1374.59,217,1365.59,213,1369.59,217,1365.59,221,1374.59,217" style="stroke:#181818;stroke-width:1;stroke-linejoin:miter;stroke-miterlimit:10;"/></g><!--link SPH to Registry--><g class="link" data-entity-1="ent0024" data-entity-2="ent0025" data-link-type="dependency" data-source-line="42" id="lnk32"><path d="M1553.38,217 C1575.78,217 1594.42,217 1615.37,217" fill="none" id="SPH-to-Registry" style="stroke:#181818;stroke-width:1;"/><polygon fill="#181818" points="1620.37,217,1611.37,213,1615.37,217,1611.37,221,1620.37,217" style="stroke:#181818;stroke-width:1;stroke-linejoin:miter;stroke-miterlimit:10;"/></g><!--link Registry to Services--><g class="link" data-entity-1="ent0025" data-entity-2="ent0026" data-link-type="dependency" data-source-line="43" id="lnk33"><path d="M1746.35,198.44 C1771.63,190.59 1796.7747,182.7821 1824.3547,174.2221" fill="none" id="Registry-to-Services" style="stroke:#181818;stroke-width:1;"/><polygon fill="#181818" points="1829.13,172.74,1819.3488,171.5876,1824.3547,174.2221,1821.7202,179.228,1829.13,172.74" style="stroke:#181818;stroke-width:1;stroke-linejoin:miter;stroke-miterlimit:10;"/></g><!--link Scheduler to Services--><g class="link" data-entity-1="ent0027" data-entity-2="ent0026" data-link-type="dependency" data-source-line="44" id="lnk34"><path d="M1757.36,146 C1776.51,146 1792.58,146 1812.91,146" fill="none" id="Scheduler-to-Services" style="stroke:#181818;stroke-width:1;"/><polygon fill="#181818" points="1817.91,146,1808.91,142,1812.91,146,1808.91,150,1817.91,146" style="stroke:#181818;stroke-width:1;stroke-linejoin:miter;stroke-miterlimit:10;"/></g><!--link Services to DAO--><g class="link" data-entity-1="ent0026" data-entity-2="ent0029" data-link-type="dependency" data-source-line="45" id="lnk35"><path d="M2014.58,146 C2046.59,146 2075.73,146 2102.22,146" fill="none" id="Services-to-DAO" style="stroke:#181818;stroke-width:1;"/><polygon fill="#181818" points="2107.22,146,2098.22,142,2102.22,146,2098.22,150,2107.22,146" style="stroke:#181818;stroke-width:1;stroke-linejoin:miter;stroke-miterlimit:10;"/></g><!--link Services to Broadcast--><g class="link" data-entity-1="ent0026" data-entity-2="ent0028" data-link-type="dependency" data-source-line="46" id="lnk36"><path d="M1997.41,119.25 C2030.55,108.2 2063.4171,97.2326 2093.4771,87.2026" fill="none" id="Services-to-Broadcast" style="stroke:#181818;stroke-width:1;"/><polygon fill="#181818" points="2098.22,85.62,2088.4167,84.6743,2093.4771,87.2026,2090.9487,92.263,2098.22,85.62" style="stroke:#181818;stroke-width:1;stroke-linejoin:miter;stroke-miterlimit:10;"/></g><!--link Broadcast to CH--><g class="link" data-entity-1="ent0028" data-entity-2="ent0023" data-link-type="dependency" data-source-line="47" id="lnk37"><path d="M2075.13,62.5 C2029.09,60.25 1969.9,58 1917.24,58 C1463.04,58 1463.04,58 1463.04,58 C1365.06,58 1281.5185,152.5546 1249.0885,194.4946" fill="none" id="Broadcast-to-CH" style="stroke:#181818;stroke-width:1;"/><polygon fill="#181818" points="1246.03,198.45,1254.6997,193.777,1249.0885,194.4946,1248.371,188.8834,1246.03,198.45" style="stroke:#181818;stroke-width:1;stroke-linejoin:miter;stroke-miterlimit:10;"/><text fill="#000000" font-family="sans-serif" font-size="13" lengthAdjust="spacing" textLength="89.9272" x="1641.07" y="54.0669">realtime push</text></g><!--link CPH to SC--><g class="link" data-entity-1="ent0005" data-entity-2="ent0006" data-link-type="dependency" data-source-line="52" id="lnk39"><path d="M575.34,488.41 C635.73,464.55 735.2297,425.247 795.5797,401.407" fill="none" id="CPH-to-SC" style="stroke:#181818;stroke-width:1;"/><polygon fill="#181818" points="800.23,399.57,790.3898,399.1564,795.5797,401.407,793.329,406.5969,800.23,399.57" style="stroke:#181818;stroke-width:1;stroke-linejoin:miter;stroke-miterlimit:10;"/><text fill="#000000" font-family="sans-serif" font-size="13" lengthAdjust="spacing" textLength="79.7837" x="662.09" y="414.2969">RPC request</text></g><!--link SC to CH--><g class="link" data-entity-1="ent0006" data-entity-2="ent0023" data-link-type="dependency" data-source-line="53" id="lnk40"><path d="M883.4519,359.8449 C899.6319,350.1749 915.85,341.08 934.86,332 C1016.61,292.98 1110.6295,258.2683 1170.7695,237.2683" fill="none" id="SC-CH" style="stroke:#181818;stroke-width:1;"/><polygon fill="#181818" points="879.16,362.41,888.9375,361.2264,883.4519,359.8449,884.8334,354.3594,879.16,362.41" style="stroke:#181818;stroke-width:1;stroke-linejoin:miter;stroke-miterlimit:10;"/><polygon fill="#181818" points="1175.49,235.62,1165.6745,234.8106,1170.7695,237.2683,1168.3118,242.3634,1175.49,235.62" style="stroke:#181818;stroke-width:1;stroke-linejoin:miter;stroke-miterlimit:10;"/><text fill="#000000" font-family="sans-serif" font-size="13" lengthAdjust="spacing" textLength="184.6978" x="935.86" y="253.0169">TCP Socket / Object streams</text></g><!--link DAO to DB--><g class="link" data-entity-1="ent0029" data-entity-2="ent0038" data-link-type="dependency" data-source-line="54" id="lnk41"><path d="M2202.91,146 C2239.34,146 2285.11,146 2324.43,146" fill="none" id="DAO-to-DB" style="stroke:#181818;stroke-width:1;"/><polygon fill="#181818" points="2329.43,146,2320.43,142,2324.43,146,2320.43,150,2329.43,146" style="stroke:#181818;stroke-width:1;stroke-linejoin:miter;stroke-miterlimit:10;"/><text fill="#000000" font-family="sans-serif" font-size="13" lengthAdjust="spacing" textLength="31.8398" x="2267.66" y="142.0669">JDBC</text></g><!--link Client to Shared--><g class="link" data-entity-1="ent0042" data-entity-2="ent0043" data-link-type="dependency" data-source-line="55" id="lnk44"><path d="M126.18,138.79 C158.89,146.23 279.3748,173.65 312.0948,181.1" fill="none" id="Client-to-Shared" style="stroke:#181818;stroke-width:1;stroke-dasharray:7,7;"/><polygon fill="#181818" points="316.97,182.21,309.0826,176.3118,312.0948,181.1,307.3066,184.1121,316.97,182.21" style="stroke:#181818;stroke-width:1;stroke-linejoin:miter;stroke-miterlimit:10;"/></g><!--link Server to Shared--><g class="link" data-entity-1="ent0045" data-entity-2="ent0043" data-link-type="dependency" data-source-line="56" id="lnk46"><path d="M126.18,228.25 C158.89,220.97 279.3697,194.1273 312.0897,186.8373" fill="none" id="Server-to-Shared" style="stroke:#181818;stroke-width:1;stroke-dasharray:7,7;"/><polygon fill="#181818" points="316.97,185.75,307.3155,183.8029,312.0897,186.8373,309.0553,191.6115,316.97,185.75" style="stroke:#181818;stroke-width:1;stroke-linejoin:miter;stroke-miterlimit:10;"/></g><?plantuml-src RLHDRzim3BtxLn2vR3kqkHV3WDX5a1R9ciNjKA3RWP7PM8jjUPASpHZstqTzn77INMAIZw8U_Lxy3cPQbDAIi9qcK0VI1qc_u0f4fpKr5eGgQ8k64hENJOiQQoxLhMeOp6rV4MW-ZCskegIYLmjMWPQxqa8X7I9LaoGjYZtk22PP9TtGMXKTdtn_ZmUSFt-Om9y4u6N-l5h2LxxUV0Sq8NBrJ3LMgweY7O1Hxk1SK4EVyI1tQ9Ns7KFcZ_ixrrfP9LIrmARWas7GUk47AB4d6zfyFSzycOnXzkus-Xs1K7BehFExPIXA2iDSv90DOMLbJR4ZxG9hVYOC-wtWwkhJnHgZpAFZ5IwnmFkoUYBtfZzIopEVCXEuONbCYrQKq7QcPD1LBsXnLwEiVEtXwGugQIo_Q2RxToHeNgAc8WeQTLonPQgmT0XzaTcv4rE8qMFVXXTtLCPrtLcgvoXuxTvZCJw_aZrA-lpA8650WbBvIVepoOFYll5_biZNGuCKjA4TRnsv79CHRhurJuRqD4ezJMN1iLNyZ7u9RIF3v2o58nwlEsOdjgbMM0WqTj5jWt6E1TTpEtk09VRnE6VEKtaUbFEkM0Gp-3tursSZwiSmMcRWDp1v0yJGrzs55wKnlI6EVDX0EluRWirOnm8jkWyAJ5Pz_cN9XfZ90pKJlq-Q95dap6QzWSqwuma_E-BnNFWuZ7tCrX14vm4Fsn_yfG5UYx0sYNj7dcpAZVUtQPR4pyxrDO_rXasYYKwLVm00?></g></svg>