<?xml version="1.0" encoding="us-ascii" standalone="no"?><svg xmlns="http://www.w3.org/2000/svg" xmlns:xlink="http://www.w3.org/1999/xlink" contentStyleType="text/css" height="445px" preserveAspectRatio="none" style="width:794px;height:445px;background:#FFFFFF;" version="1.1" viewBox="0 0 794 445" width="794px" zoomAndPan="magnify"><defs/><g><!--cluster Client--><g id="cluster_Client"><path d="M341.5,6 L383.5,6 A3.75,3.75 0 0 1 386,8.5 L393,29.6094 L784.5,29.6094 A2.5,2.5 0 0 1 787,32.1094 L787,103.5 A2.5,2.5 0 0 1 784.5,106 L341.5,106 A2.5,2.5 0 0 1 339,103.5 L339,8.5 A2.5,2.5 0 0 1 341.5,6 " fill="none" style="stroke:#000000;stroke-width:1.5;"/><line style="stroke:#000000;stroke-width:1.5;" x1="339" x2="393" y1="29.6094" y2="29.6094"/><text fill="#000000" font-family="sans-serif" font-size="14" font-weight="bold" lengthAdjust="spacing" textLength="41" x="343" y="22.5332">Client</text></g><!--cluster Server--><g id="cluster_Server"><path d="M8.5,130 L57.5,130 A3.75,3.75 0 0 1 60,132.5 L67,153.6094 L507.5,153.6094 A2.5,2.5 0 0 1 510,156.1094 L510,335.5 A2.5,2.5 0 0 1 507.5,338 L8.5,338 A2.5,2.5 0 0 1 6,335.5 L6,132.5 A2.5,2.5 0 0 1 8.5,130 " fill="none" style="stroke:#000000;stroke-width:1.5;"/><line style="stroke:#000000;stroke-width:1.5;" x1="6" x2="67" y1="153.6094" y2="153.6094"/><text fill="#000000" font-family="sans-serif" font-size="14" font-weight="bold" lengthAdjust="spacing" textLength="48" x="10" y="146.5332">Server</text></g><!--entity ClientUI--><g id="elem_ClientUI"><rect fill="#F1F1F1" height="47.6094" rx="2.5" ry="2.5" style="stroke:#181818;stroke-width:0.5;" width="88" x="683" y="42"/><rect fill="#F1F1F1" height="10" style="stroke:#181818;stroke-width:0.5;" width="15" x="751" y="47"/><rect fill="#F1F1F1" height="2" style="stroke:#181818;stroke-width:0.5;" width="4" x="749" y="49"/><rect fill="#F1F1F1" height="2" style="stroke:#181818;stroke-width:0.5;" width="4" x="749" y="53"/><text fill="#000000" font-family="sans-serif" font-size="14" lengthAdjust="spacing" textLength="48" x="698" y="76.5332">ClientUI</text></g><!--entity Controllers--><g id="elem_Controllers"><rect fill="#F1F1F1" height="47.6094" rx="2.5" ry="2.5" style="stroke:#181818;stroke-width:0.5;" width="109" x="538.5" y="42"/><rect fill="#F1F1F1" height="10" style="stroke:#181818;stroke-width:0.5;" width="15" x="627.5" y="47"/><rect fill="#F1F1F1" height="2" style="stroke:#181818;stroke-width:0.5;" width="4" x="625.5" y="49"/><rect fill="#F1F1F1" height="2" style="stroke:#181818;stroke-width:0.5;" width="4" x="625.5" y="53"/><text fill="#000000" font-family="sans-serif" font-size="14" lengthAdjust="spacing" textLength="69" x="553.5" y="76.5332">Controllers</text></g><!--entity ClientConnection--><g id="elem_ClientConnection"><rect fill="#F1F1F1" height="47.6094" rx="2.5" ry="2.5" style="stroke:#181818;stroke-width:0.5;" width="148" x="355" y="42"/><rect fill="#F1F1F1" height="10" style="stroke:#181818;stroke-width:0.5;" width="15" x="483" y="47"/><rect fill="#F1F1F1" height="2" style="stroke:#181818;stroke-width:0.5;" width="4" x="481" y="49"/><rect fill="#F1F1F1" height="2" style="stroke:#181818;stroke-width:0.5;" width="4" x="481" y="53"/><text fill="#000000" font-family="sans-serif" font-size="14" lengthAdjust="spacing" textLength="108" x="370" y="76.5332">ClientConnection</text></g><!--entity AuctionServer--><g id="elem_AuctionServer"><rect fill="#F1F1F1" height="47.6094" rx="2.5" ry="2.5" style="stroke:#181818;stroke-width:0.5;" width="129" x="364.5" y="166"/><rect fill="#F1F1F1" height="10" style="stroke:#181818;stroke-width:0.5;" width="15" x="473.5" y="171"/><rect fill="#F1F1F1" height="2" style="stroke:#181818;stroke-width:0.5;" width="4" x="471.5" y="173"/><rect fill="#F1F1F1" height="2" style="stroke:#181818;stroke-width:0.5;" width="4" x="471.5" y="177"/><text fill="#000000" font-family="sans-serif" font-size="14" lengthAdjust="spacing" textLength="89" x="379.5" y="200.5332">AuctionServer</text></g><!--entity ProtocolHandler--><g id="elem_ProtocolHandler"><rect fill="#F1F1F1" height="47.6094" rx="2.5" ry="2.5" style="stroke:#181818;stroke-width:0.5;" width="141" x="188.5" y="166"/><rect fill="#F1F1F1" height="10" style="stroke:#181818;stroke-width:0.5;" width="15" x="309.5" y="171"/><rect fill="#F1F1F1" height="2" style="stroke:#181818;stroke-width:0.5;" width="4" x="307.5" y="173"/><rect fill="#F1F1F1" height="2" style="stroke:#181818;stroke-width:0.5;" width="4" x="307.5" y="177"/><text fill="#000000" font-family="sans-serif" font-size="14" lengthAdjust="spacing" textLength="101" x="203.5" y="200.5332">ProtocolHandler</text></g><!--entity Service_Layer--><g id="elem_Service_Layer"><rect fill="#F1F1F1" height="47.6094" rx="2.5" ry="2.5" style="stroke:#181818;stroke-width:0.5;" width="131" x="22.5" y="166"/><rect fill="#F1F1F1" height="10" style="stroke:#181818;stroke-width:0.5;" width="15" x="133.5" y="171"/><rect fill="#F1F1F1" height="2" style="stroke:#181818;stroke-width:0.5;" width="4" x="131.5" y="173"/><rect fill="#F1F1F1" height="2" style="stroke:#181818;stroke-width:0.5;" width="4" x="131.5" y="177"/><text fill="#000000" font-family="sans-serif" font-size="14" lengthAdjust="spacing" textLength="91" x="37.5" y="200.5332">Service_Layer</text></g><!--entity DAO_Layer--><g id="elem_DAO_Layer"><rect fill="#F1F1F1" height="47.6094" rx="2.5" ry="2.5" style="stroke:#181818;stroke-width:0.5;" width="114" x="31" y="274"/><rect fill="#F1F1F1" height="10" style="stroke:#181818;stroke-width:0.5;" width="15" x="125" y="279"/><rect fill="#F1F1F1" height="2" style="stroke:#181818;stroke-width:0.5;" width="4" x="123" y="281"/><rect fill="#F1F1F1" height="2" style="stroke:#181818;stroke-width:0.5;" width="4" x="123" y="285"/><text fill="#000000" font-family="sans-serif" font-size="14" lengthAdjust="spacing" textLength="74" x="46" y="308.5332">DAO_Layer</text></g><!--entity DB--><g id="elem_DB"><path d="M55,392 C55,382 88,382 88,382 C88,382 121,382 121,392 L121,418.6094 C121,428.6094 88,428.6094 88,428.6094 C88,428.6094 55,428.6094 55,418.6094 L55,392 " fill="#F1F1F1" style="stroke:#181818;stroke-width:0.5;"/><path d="M55,392 C55,402 88,402 88,402 C88,402 121,402 121,392 " fill="none" style="stroke:#181818;stroke-width:0.5;"/><text fill="#000000" font-family="sans-serif" font-size="14" lengthAdjust="spacing" textLength="46" x="65" y="420.5332">MySQL</text></g><!--reverse link ClientConnection to AuctionServer--><g id="link_ClientConnection_AuctionServer"><path d="M429,96.23 C429,117.94 429,144.17 429,165.85 " fill="none" id="ClientConnection-backto-AuctionServer" style="stroke:#181818;stroke-width:1.0;"/><polygon fill="#181818" points="429,90.23,425,99.23,429,95.23,433,99.23,429,90.23" style="stroke:#181818;stroke-width:1.0;"/></g><!--link Service_Layer to DAO_Layer--><g id="link_Service_Layer_DAO_Layer"><path d="M88,214 C88,231.66 88,249.94 88,267.68 " fill="none" id="Service_Layer-to-DAO_Layer" style="stroke:#181818;stroke-width:1.0;"/><polygon fill="#181818" points="88,273.68,92,264.68,88,268.68,84,264.68,88,273.68" style="stroke:#181818;stroke-width:1.0;"/></g><!--link DAO_Layer to DB--><g id="link_DAO_Layer_DB"><path d="M88,322.15 C88,339.86 88,358.16 88,375.76 " fill="none" id="DAO_Layer-to-DB" style="stroke:#181818;stroke-width:1.0;"/><polygon fill="#181818" points="88,381.76,92,372.76,88,376.76,84,372.76,88,381.76" style="stroke:#181818;stroke-width:1.0;"/></g><!--SRC=[POxB2i8m44Nt-OgX6rVv0n7wM2XKL8ehAJAcGO8nKz9OAUA_6zjQgyqgz-HoJsOGqxKa8us3MiaxAr5Sy2mXYBNoC8070tyENTolyZwISPQqbhRAnmNFZHHEaSdPattNCcbhQOUryDPsEjeFR2qv4gINQ0ezq7T52NbCiHbO4cu-sJiAT7Z2oalMJRPB0y0AaeYnwOzWpld4_MS0pXS_Xj6zVKkY5m00]--></g></svg>